<?xml version="1.0" encoding="utf-8"?>
<!-- Generator: Adobe Illustrator 24.3.0, SVG Export Plug-In . SVG Version: 6.00 Build 0)  -->
<svg version="1.1" id="Layer_1" xmlns="http://www.w3.org/2000/svg" xmlns:xlink="http://www.w3.org/1999/xlink" x="0px" y="0px"
	 viewBox="0 0 215 48" style="enable-background:new 0 0 215 48;" xml:space="preserve">
<style type="text/css">
	.st0{fill:#831010;}
</style>
<g>
	<g>
		<g>
			<path class="st0" d="M17.7,41.6c-2.2,0-4.1,0-6.3,0c2.8-4.7,5.3-9.4,7.9-14.2c0-0.3-0.3,0-0.6,0c-3.1,0-6.3,0-9.4,0
				c-0.9,0-1.9,0.3-2.8,0.6c0.9-1.6,1.9-3.1,2.5-4.7C9.3,23,9.3,23,9.6,23c3.1,0,6.3,0,9.4,0c5.3,0,10.7,0,16,0c0.3,0,0.6,0,0.9,0.6
				c0.9,1.6,1.6,2.8,2.5,4.4c-1.3-0.9-2.8-0.9-4.4-0.9c-3.5,0-6.6,0-10.1,0c-0.3,0-0.6,0-0.9,0.6c-2.2,3.8-4.1,7.5-6.3,11
				C17.1,40.4,17.1,40.7,17.7,41.6z"/>
		</g>
		<g>
			<path class="st0" d="M23.1,6.4c2.5,4.7,5.3,9.1,7.9,13.8c-1.6,0-3.1,0-4.4,0c-0.3-0.3-0.6-0.6-0.6-0.6c-0.9-1.6-1.6-3.1-2.5-4.4
				c0-0.3-0.3-0.3-0.3-0.6c-0.3,0.6-0.9,1.3-1.3,1.9c-0.6,1.3-0.9,2.2-1.6,3.1c-0.3,0.3-0.3,0.3-0.6,0.3c-1.6,0-2.8,0-4.4,0
				C17.7,15.5,20.6,10.8,23.1,6.4z"/>
		</g>
		<g>
			<path class="st0" d="M24,35c0.6-1.3,1.3-2.5,2.2-3.8c0-0.3,0.3-0.3,0.6-0.3c3.5,0,6.9,0,10.1,0c0.3,0,0.3,0.3,0.6,0.3
				c1.3,2.5,2.8,4.7,4.1,7.2c0.6,1.3,1.3,2.2,2.5,3.1c-1.6,0-3.5,0-5,0c-0.3,0-0.3-0.3-0.6-0.6c-0.9-1.9-2.2-3.8-3.1-5.7
				c-0.3-0.3-0.6-0.6-0.9-0.6c-3.1,0-6,0-9.1,0C24.6,35,24.3,35,24,35z"/>
		</g>
		<g>
			<path class="st0" d="M13.6,30.9c-0.6,1.3-1.3,2.2-1.9,3.1c-1.3,2.5-2.5,4.7-4.1,7.2c0,0.3-0.3,0.6-0.6,0.3c-1.6,0-3.5,0-5,0
				c2.8-2.8,4.4-6.9,6.6-10.4c0.3-0.3,0.6-0.6,0.9-0.6C11.1,30.9,12.4,30.9,13.6,30.9z"/>
		</g>
	</g>
	<g>
		<path d="M61.4,32.4h-8.1L52,36.2h-5.5l7.8-21.6h6.1l7.8,21.6h-5.6L61.4,32.4z M60,28.3l-2.7-7.9l-2.6,7.9H60z"/>
		<path d="M86.2,14.6v4.2h-5.7v17.4h-5.3V18.8h-5.7v-4.2C69.5,14.6,86.2,14.6,86.2,14.6z"/>
		<path d="M92.4,35.6c-1.3-0.5-2.3-1.3-3-2.3s-1.1-2.2-1.2-3.6h5.6c0.1,0.8,0.4,1.4,0.8,1.8c0.5,0.4,1.1,0.6,1.8,0.6
			c0.8,0,1.4-0.2,1.8-0.5c0.5-0.4,0.7-0.9,0.7-1.5c0-0.5-0.2-1-0.5-1.3c-0.4-0.3-0.8-0.6-1.3-0.9c-0.5-0.2-1.3-0.5-2.2-0.8
			c-1.4-0.4-2.5-0.9-3.4-1.3s-1.6-1.1-2.3-1.9c-0.6-0.8-1-1.9-1-3.3c0-2,0.7-3.6,2.2-4.7s3.4-1.7,5.7-1.7c2.4,0,4.3,0.6,5.8,1.7
			s2.2,2.7,2.3,4.8h-5.7c0-0.7-0.3-1.2-0.8-1.6s-1.1-0.6-1.8-0.6c-0.6,0-1.1,0.2-1.5,0.5s-0.6,0.8-0.6,1.5s0.3,1.2,1,1.6
			s1.7,0.8,3.1,1.3s2.5,0.9,3.4,1.4c0.9,0.4,1.6,1.1,2.3,1.9c0.6,0.8,1,1.9,1,3.2c0,1.2-0.3,2.3-0.9,3.4c-0.6,1-1.5,1.8-2.7,2.4
			c-1.2,0.6-2.6,0.9-4.2,0.9C95,36.4,93.6,36.1,92.4,35.6z"/>
		<path d="M123.3,25c-0.6,1-1.5,1.9-2.6,2.5s-2.7,1-4.4,1H113v7.8h-5.3V14.6h8.5c1.7,0,3.2,0.3,4.4,0.9c1.2,0.6,2.1,1.4,2.7,2.5
			c0.6,1,0.9,2.2,0.9,3.6C124.2,22.8,123.9,23.9,123.3,25z M118.1,23.5c0.5-0.5,0.7-1.1,0.7-2s-0.2-1.5-0.7-2s-1.2-0.7-2.2-0.7H113
			v5.4h2.9C116.8,24.2,117.6,24,118.1,23.5z"/>
		<path d="M131.5,35c-1.7-0.9-3-2.3-4-4s-1.5-3.6-1.5-5.7s0.5-4,1.5-5.7s2.3-3,4-3.9s3.6-1.4,5.6-1.4s3.9,0.5,5.6,1.4
			c1.7,0.9,3,2.3,4,3.9c1,1.7,1.5,3.6,1.5,5.7s-0.5,4-1.5,5.7s-2.3,3-4,4c-1.7,0.9-3.5,1.4-5.6,1.4S133.2,35.9,131.5,35z
			 M141.3,29.9c1-1.1,1.6-2.7,1.6-4.6s-0.5-3.4-1.6-4.6c-1-1.1-2.4-1.7-4.1-1.7c-1.7,0-3.1,0.6-4.2,1.7c-1,1.1-1.6,2.7-1.6,4.6
			s0.5,3.4,1.6,4.6c1,1.1,2.4,1.7,4.2,1.7C138.8,31.6,140.2,31,141.3,29.9z"/>
		<path d="M162.1,36.2l-4.5-8.2h-1.3v8.2H151V14.6h8.8c1.7,0,3.2,0.3,4.4,0.9c1.2,0.6,2.1,1.4,2.7,2.4c0.6,1,0.9,2.2,0.9,3.5
			c0,1.4-0.4,2.7-1.2,3.8c-0.8,1.1-2,1.9-3.6,2.4l5,8.6C168,36.2,162.1,36.2,162.1,36.2z M156.3,24.3h3.3c1,0,1.7-0.2,2.2-0.7
			s0.7-1.1,0.7-2c0-0.8-0.2-1.5-0.7-1.9c-0.5-0.5-1.2-0.7-2.2-0.7h-3.3V24.3z"/>
		<path d="M186.7,14.6v4.2H181v17.4h-5.3V18.8H170v-4.2C170,14.6,186.7,14.6,186.7,14.6z"/>
		<path d="M192.9,35.6c-1.3-0.5-2.2-1.3-3-2.3c-0.7-1-1.1-2.2-1.2-3.6h5.6c0.1,0.8,0.4,1.4,0.8,1.8c0.5,0.4,1.1,0.6,1.8,0.6
			c0.8,0,1.4-0.2,1.8-0.5c0.5-0.4,0.7-0.9,0.7-1.5c0-0.5-0.2-1-0.5-1.3c-0.4-0.3-0.8-0.6-1.3-0.9c-0.5-0.2-1.3-0.5-2.2-0.8
			c-1.4-0.4-2.5-0.9-3.4-1.3s-1.6-1.1-2.3-1.9s-1-1.9-1-3.3c0-2,0.7-3.6,2.2-4.7s3.4-1.7,5.7-1.7c2.4,0,4.3,0.6,5.8,1.7
			s2.2,2.7,2.3,4.8H199c0-0.7-0.3-1.2-0.8-1.6s-1.1-0.6-1.8-0.6c-0.6,0-1.1,0.2-1.5,0.5s-0.6,0.8-0.6,1.5s0.3,1.2,1,1.6
			s1.7,0.8,3.1,1.3c1.4,0.5,2.5,0.9,3.4,1.4c0.9,0.4,1.6,1.1,2.3,1.9c0.6,0.8,1,1.9,1,3.2c0,1.2-0.3,2.3-0.9,3.4
			c-0.6,1-1.5,1.8-2.7,2.4s-2.6,0.9-4.2,0.9C195.6,36.4,194.1,36.1,192.9,35.6z"/>
		<path d="M208.4,35.6c-0.6-0.5-0.9-1.2-0.9-2s0.3-1.5,0.9-2.1c0.6-0.6,1.3-0.8,2.3-0.8c0.9,0,1.6,0.3,2.2,0.8
			c0.6,0.6,0.9,1.2,0.9,2.1c0,0.8-0.3,1.5-0.9,2c-0.6,0.5-1.3,0.8-2.2,0.8C209.8,36.4,209,36.1,208.4,35.6z"/>
	</g>
</g>
</svg>
