<?xml version="1.0" encoding="utf-8"?>
<!-- Generator: Adobe Illustrator 24.3.0, SVG Export Plug-In . SVG Version: 6.00 Build 0)  -->
<svg version="1.1" id="Layer_1" xmlns="http://www.w3.org/2000/svg" xmlns:xlink="http://www.w3.org/1999/xlink" x="0px" y="0px"
	 viewBox="0 0 16 16" style="enable-background:new 0 0 16 16;" xml:space="preserve">
<style type="text/css">
	.st0{fill:#831010;}
	.st1{fill:#FCFCFC;}
</style>
<g id="BACKGROUND">
</g>
<g id="OBJECTS">
</g>
<g id="DESIGNED_BY_FREEPIK">
	<path class="st0" d="M13.6,15.8H2.4c-1.1,0-1.9-0.9-1.9-1.9V2.1c0-1.1,0.9-1.9,1.9-1.9h11.2c1.1,0,1.9,0.9,1.9,1.9v11.8
		C15.5,15,14.6,15.8,13.6,15.8z"/>
	<g>
		<path class="st1" d="M6.3,13.6c-0.7,0-1.3,0-2,0c0.9-1.5,1.7-3,2.5-4.5c0-0.1-0.1,0-0.2,0c-1,0-2,0-3,0C3.3,9.1,3,9.2,2.7,9.3
			c0.3-0.5,0.6-1,0.8-1.5c0.1-0.1,0.1-0.1,0.2-0.1c1,0,2,0,3,0c1.7,0,3.4,0,5.1,0c0.1,0,0.2,0,0.3,0.2c0.3,0.5,0.5,0.9,0.8,1.4
			C12.5,9,12,9,11.5,9c-1.1,0-2.1,0-3.2,0C8.2,9,8.1,9,8,9.2c-0.7,1.2-1.3,2.4-2,3.5C6.1,13.2,6.1,13.3,6.3,13.6z"/>
		<path class="st1" d="M8,2.4c0.8,1.5,1.7,2.9,2.5,4.4c-0.5,0-1,0-1.4,0C9,6.7,8.9,6.6,8.9,6.6c-0.3-0.5-0.5-1-0.8-1.4
			C8.1,5.1,8,5.1,8,5C7.9,5.2,7.7,5.4,7.6,5.6C7.4,6,7.3,6.3,7.1,6.6C7,6.7,7,6.7,6.9,6.7c-0.5,0-0.9,0-1.4,0C6.3,5.3,7.2,3.8,8,2.4
			z"/>
		<path class="st1" d="M8.3,11.5c0.2-0.4,0.4-0.8,0.7-1.2c0-0.1,0.1-0.1,0.2-0.1c1.1,0,2.2,0,3.2,0c0.1,0,0.1,0.1,0.2,0.1
			c0.4,0.8,0.9,1.5,1.3,2.3c0.2,0.4,0.4,0.7,0.8,1c-0.5,0-1.1,0-1.6,0c-0.1,0-0.1-0.1-0.2-0.2c-0.3-0.6-0.7-1.2-1-1.8
			c-0.1-0.1-0.2-0.2-0.3-0.2c-1,0-1.9,0-2.9,0C8.5,11.5,8.4,11.5,8.3,11.5z"/>
		<path class="st1" d="M5,10.2c-0.2,0.4-0.4,0.7-0.6,1C4,12,3.6,12.7,3.1,13.5c0,0.1-0.1,0.2-0.2,0.1c-0.5,0-1.1,0-1.6,0
			c0.9-0.9,1.4-2.2,2.1-3.3c0.1-0.1,0.2-0.2,0.3-0.2C4.2,10.2,4.6,10.2,5,10.2z"/>
	</g>
</g>
</svg>
